<svg width="24" height="25" viewBox="0 0 24 25" fill="none" xmlns="http://www.w3.org/2000/svg">
<path fill-rule="evenodd" clip-rule="evenodd" d="M10.9451 1.44959H13.0549C14.4225 1.44956 15.5248 1.44955 16.3918 1.56611C17.2919 1.68713 18.0497 1.94602 18.6516 2.54794C19.2536 3.14985 19.5125 3.90773 19.6335 4.80783C19.75 5.6748 19.75 6.77712 19.75 8.14472V16.2545C19.75 17.622 19.75 18.7244 19.6335 19.5913C19.5125 20.4914 19.2536 21.2493 18.6516 21.8512C18.0497 22.4532 17.2919 22.712 16.3918 22.8331C15.5248 22.9496 14.4225 22.9496 13.0549 22.9496H10.9451C9.57754 22.9496 8.47522 22.9496 7.60825 22.8331C6.70814 22.712 5.95027 22.4532 5.34835 21.8512C4.74643 21.2493 4.48754 20.4914 4.36652 19.5913C4.24996 18.7244 4.24998 17.6221 4.25 16.2545V8.14471C4.24998 6.77712 4.24996 5.6748 4.36652 4.80783C4.48754 3.90773 4.74643 3.14985 5.34835 2.54794C5.95027 1.94602 6.70814 1.68713 7.60825 1.56611C8.47522 1.44955 9.57754 1.44956 10.9451 1.44959ZM7.80812 3.05273C7.07435 3.15139 6.68577 3.33183 6.40901 3.6086C6.13225 3.88536 5.9518 4.27393 5.85315 5.00771C5.75159 5.76306 5.75 6.76417 5.75 8.19959V16.1996C5.75 17.635 5.75159 18.6361 5.85315 19.3915C5.9518 20.1252 6.13225 20.5138 6.40901 20.7906C6.68577 21.0673 7.07434 21.2478 7.80812 21.3464C8.56347 21.448 9.56458 21.4496 11 21.4496H13C14.4354 21.4496 15.4365 21.448 16.1919 21.3464C16.9257 21.2478 17.3142 21.0673 17.591 20.7906C17.8678 20.5138 18.0482 20.1252 18.1469 19.3915C18.2484 18.6361 18.25 17.635 18.25 16.1996V8.19959C18.25 6.76417 18.2484 5.76306 18.1469 5.00771C18.0482 4.27393 17.8678 3.88536 17.591 3.6086C17.3142 3.33183 16.9257 3.15139 16.1919 3.05273C15.4365 2.95118 14.4354 2.94959 13 2.94959H11C9.56458 2.94959 8.56347 2.95118 7.80812 3.05273ZM2 4.44959C2.41421 4.44959 2.75 4.78537 2.75 5.19959V19.1996C2.75 19.6138 2.41421 19.9496 2 19.9496C1.58579 19.9496 1.25 19.6138 1.25 19.1996V5.19959C1.25 4.78537 1.58579 4.44959 2 4.44959ZM22 4.44959C22.4142 4.44959 22.75 4.78537 22.75 5.19959V19.1996C22.75 19.6138 22.4142 19.9496 22 19.9496C21.5858 19.9496 21.25 19.6138 21.25 19.1996V5.19959C21.25 4.78537 21.5858 4.44959 22 4.44959ZM8.25 9.19959C8.25 8.78537 8.58579 8.44959 9 8.44959H15C15.4142 8.44959 15.75 8.78537 15.75 9.19959C15.75 9.6138 15.4142 9.94959 15 9.94959H9C8.58579 9.94959 8.25 9.6138 8.25 9.19959ZM8.25 13.1996C8.25 12.7854 8.58579 12.4496 9 12.4496H15C15.4142 12.4496 15.75 12.7854 15.75 13.1996C15.75 13.6138 15.4142 13.9496 15 13.9496H9C8.58579 13.9496 8.25 13.6138 8.25 13.1996ZM8.25 17.1996C8.25 16.7854 8.58579 16.4496 9 16.4496H12C12.4142 16.4496 12.75 16.7854 12.75 17.1996C12.75 17.6138 12.4142 17.9496 12 17.9496H9C8.58579 17.9496 8.25 17.6138 8.25 17.1996Z" fill="#213970"/>
</svg>
