<svg width="22" height="22" viewBox="0 0 22 22" fill="none" xmlns="http://www.w3.org/2000/svg">
<path fill-rule="evenodd" clip-rule="evenodd" d="M9.94513 0.449586H12.0549C13.4225 0.449565 14.5248 0.449548 15.3918 0.566109C16.2919 0.687125 17.0497 0.946019 17.6517 1.54794C17.9501 1.8464 18.1642 2.18322 18.319 2.55671C19.2511 2.67347 20.0336 2.92992 20.6517 3.54799C21.2536 4.1499 21.5125 4.90778 21.6335 5.80789C21.75 6.67486 21.75 7.77718 21.75 9.14477V13.2545C21.75 14.6221 21.75 15.7244 21.6335 16.5914C21.5125 17.4915 21.2536 18.2494 20.6517 18.8513C20.0336 19.4694 19.2511 19.7258 18.319 19.8426C18.1642 20.216 17.9501 20.5528 17.6517 20.8512C17.0497 21.4532 16.2919 21.712 15.3918 21.8331C14.5248 21.9496 13.4225 21.9496 12.0549 21.9496H9.94513C8.57754 21.9496 7.47522 21.9496 6.60825 21.8331C5.70814 21.712 4.95027 21.4532 4.34835 20.8512C4.04991 20.5528 3.8358 20.216 3.68101 19.8426C2.74894 19.7258 1.96643 19.4694 1.34835 18.8513C0.746434 18.2494 0.48754 17.4915 0.366524 16.5914C0.249963 15.7244 0.24998 14.6221 0.250001 13.2545V9.14476C0.24998 7.77717 0.249963 6.67485 0.366524 5.80789C0.48754 4.90778 0.746434 4.1499 1.34835 3.54799C1.96642 2.92992 2.74892 2.67346 3.68096 2.55671C3.83576 2.18322 4.04988 1.8464 4.34835 1.54794C4.95027 0.946019 5.70814 0.687125 6.60825 0.566109C7.47522 0.449548 8.57754 0.449565 9.94513 0.449586ZM3.32844 4.14006C2.89082 4.24552 2.618 4.39965 2.40901 4.60865C2.13225 4.88541 1.9518 5.27398 1.85315 6.00776C1.75159 6.76311 1.75 7.76422 1.75 9.19964V13.1996C1.75 14.6351 1.75159 15.6362 1.85315 16.3915C1.9518 17.1253 2.13225 17.5139 2.40901 17.7906C2.61801 17.9996 2.89083 18.1538 3.32845 18.2592C3.24997 17.448 3.24998 16.4531 3.25 15.2545V7.14471C3.24998 5.94611 3.24997 4.95127 3.32844 4.14006ZM18.6716 18.2592C19.1092 18.1538 19.382 17.9996 19.591 17.7906C19.8678 17.5139 20.0482 17.1253 20.1469 16.3915C20.2484 15.6362 20.25 14.6351 20.25 13.1996V9.19964C20.25 7.76422 20.2484 6.76311 20.1469 6.00776C20.0482 5.27398 19.8678 4.88541 19.591 4.60865C19.382 4.39965 19.1092 4.24552 18.6716 4.14006C18.75 4.95128 18.75 5.94611 18.75 7.14472V15.2545C18.75 16.4531 18.75 17.448 18.6716 18.2592ZM6.80812 2.05273C6.07435 2.15139 5.68577 2.33183 5.40901 2.6086C5.13225 2.88536 4.9518 3.27393 4.85315 4.00771C4.75159 4.76306 4.75 5.76417 4.75 7.19959V15.1996C4.75 16.635 4.75159 17.6361 4.85315 18.3915C4.9518 19.1252 5.13225 19.5138 5.40901 19.7906C5.68577 20.0673 6.07435 20.2478 6.80812 20.3464C7.56347 20.448 8.56458 20.4496 10 20.4496H12C13.4354 20.4496 14.4365 20.448 15.1919 20.3464C15.9257 20.2478 16.3142 20.0673 16.591 19.7906C16.8678 19.5138 17.0482 19.1252 17.1469 18.3915C17.2484 17.6361 17.25 16.635 17.25 15.1996V7.19959C17.25 5.76417 17.2484 4.76306 17.1469 4.00771C17.0482 3.27393 16.8678 2.88536 16.591 2.6086C16.3142 2.33183 15.9257 2.15139 15.1919 2.05273C14.4365 1.95118 13.4354 1.94959 12 1.94959H10C8.56458 1.94959 7.56347 1.95118 6.80812 2.05273ZM7.25 8.19959C7.25 7.78537 7.58579 7.44959 8 7.44959H14C14.4142 7.44959 14.75 7.78537 14.75 8.19959C14.75 8.6138 14.4142 8.94959 14 8.94959H8C7.58579 8.94959 7.25 8.6138 7.25 8.19959ZM7.25 12.1996C7.25 11.7854 7.58579 11.4496 8 11.4496H14C14.4142 11.4496 14.75 11.7854 14.75 12.1996C14.75 12.6138 14.4142 12.9496 14 12.9496H8C7.58579 12.9496 7.25 12.6138 7.25 12.1996ZM7.25 16.1996C7.25 15.7854 7.58579 15.4496 8 15.4496H11C11.4142 15.4496 11.75 15.7854 11.75 16.1996C11.75 16.6138 11.4142 16.9496 11 16.9496H8C7.58579 16.9496 7.25 16.6138 7.25 16.1996Z" fill="#17171C"/>
</svg>
