<svg width="24" height="24" viewBox="0 0 24 25" fill="none" xmlns="http://www.w3.org/2000/svg">
<path fill-rule="evenodd" clip-rule="evenodd" d="M10.9451 1.44959H13.0549C14.4225 1.44956 15.5248 1.44955 16.3918 1.56611C17.2919 1.68713 18.0497 1.94602 18.6517 2.54794C18.9501 2.8464 19.1642 3.18322 19.319 3.55671C20.2511 3.67347 21.0336 3.92992 21.6517 4.54799C22.2536 5.1499 22.5125 5.90778 22.6335 6.80789C22.75 7.67486 22.75 8.77718 22.75 10.1448V14.2545C22.75 15.6221 22.75 16.7244 22.6335 17.5914C22.5125 18.4915 22.2536 19.2494 21.6517 19.8513C21.0336 20.4694 20.2511 20.7258 19.319 20.8426C19.1642 21.216 18.9501 21.5528 18.6517 21.8512C18.0497 22.4532 17.2919 22.712 16.3918 22.8331C15.5248 22.9496 14.4225 22.9496 13.0549 22.9496H10.9451C9.57754 22.9496 8.47522 22.9496 7.60825 22.8331C6.70814 22.712 5.95027 22.4532 5.34835 21.8512C5.04991 21.5528 4.8358 21.216 4.68101 20.8426C3.74894 20.7258 2.96643 20.4694 2.34835 19.8513C1.74643 19.2494 1.48754 18.4915 1.36652 17.5914C1.24996 16.7244 1.24998 15.6221 1.25 14.2545V10.1448C1.24998 8.77717 1.24996 7.67485 1.36652 6.80789C1.48754 5.90778 1.74643 5.1499 2.34835 4.54799C2.96642 3.92992 3.74892 3.67346 4.68096 3.55671C4.83576 3.18322 5.04988 2.8464 5.34835 2.54794C5.95027 1.94602 6.70814 1.68713 7.60825 1.56611C8.47522 1.44955 9.57754 1.44956 10.9451 1.44959ZM4.32844 5.14006C3.89082 5.24552 3.618 5.39965 3.40901 5.60865C3.13225 5.88541 2.9518 6.27398 2.85315 7.00776C2.75159 7.76311 2.75 8.76422 2.75 10.1996V14.1996C2.75 15.6351 2.75159 16.6362 2.85315 17.3915C2.9518 18.1253 3.13225 18.5139 3.40901 18.7906C3.61801 18.9996 3.89083 19.1538 4.32845 19.2592C4.24997 18.448 4.24998 17.4531 4.25 16.2545V8.14471C4.24998 6.94611 4.24997 5.95127 4.32844 5.14006ZM19.6716 19.2592C20.1092 19.1538 20.382 18.9996 20.591 18.7906C20.8678 18.5139 21.0482 18.1253 21.1469 17.3915C21.2484 16.6362 21.25 15.6351 21.25 14.1996V10.1996C21.25 8.76422 21.2484 7.76311 21.1469 7.00776C21.0482 6.27398 20.8678 5.88541 20.591 5.60865C20.382 5.39965 20.1092 5.24552 19.6716 5.14006C19.75 5.95128 19.75 6.94611 19.75 8.14472V16.2545C19.75 17.4531 19.75 18.448 19.6716 19.2592ZM7.80812 3.05273C7.07435 3.15139 6.68577 3.33183 6.40901 3.6086C6.13225 3.88536 5.9518 4.27393 5.85315 5.00771C5.75159 5.76306 5.75 6.76417 5.75 8.19959V16.1996C5.75 17.635 5.75159 18.6361 5.85315 19.3915C5.9518 20.1252 6.13225 20.5138 6.40901 20.7906C6.68577 21.0673 7.07435 21.2478 7.80812 21.3464C8.56347 21.448 9.56458 21.4496 11 21.4496H13C14.4354 21.4496 15.4365 21.448 16.1919 21.3464C16.9257 21.2478 17.3142 21.0673 17.591 20.7906C17.8678 20.5138 18.0482 20.1252 18.1469 19.3915C18.2484 18.6361 18.25 17.635 18.25 16.1996V8.19959C18.25 6.76417 18.2484 5.76306 18.1469 5.00771C18.0482 4.27393 17.8678 3.88536 17.591 3.6086C17.3142 3.33183 16.9257 3.15139 16.1919 3.05273C15.4365 2.95118 14.4354 2.94959 13 2.94959H11C9.56458 2.94959 8.56347 2.95118 7.80812 3.05273ZM8.25 9.19959C8.25 8.78537 8.58579 8.44959 9 8.44959H15C15.4142 8.44959 15.75 8.78537 15.75 9.19959C15.75 9.6138 15.4142 9.94959 15 9.94959H9C8.58579 9.94959 8.25 9.6138 8.25 9.19959ZM8.25 13.1996C8.25 12.7854 8.58579 12.4496 9 12.4496H15C15.4142 12.4496 15.75 12.7854 15.75 13.1996C15.75 13.6138 15.4142 13.9496 15 13.9496H9C8.58579 13.9496 8.25 13.6138 8.25 13.1996ZM8.25 17.1996C8.25 16.7854 8.58579 16.4496 9 16.4496H12C12.4142 16.4496 12.75 16.7854 12.75 17.1996C12.75 17.6138 12.4142 17.9496 12 17.9496H9C8.58579 17.9496 8.25 17.6138 8.25 17.1996Z" fill="#17171C"/>
</svg>
