<svg width="24" height="24" viewBox="0 0 24 25" fill="none" xmlns="http://www.w3.org/2000/svg">
<path fill-rule="evenodd" clip-rule="evenodd" d="M7.94513 1.44959H16.0549C17.4225 1.44956 18.5248 1.44955 19.3918 1.56611C20.2919 1.68713 21.0497 1.94602 21.6517 2.54794C22.2536 3.14985 22.5125 3.90773 22.6335 4.80783C22.75 5.6748 22.75 6.77712 22.75 8.14472V12.2545C22.75 13.622 22.75 14.7244 22.6335 15.5913C22.5125 16.4914 22.2536 17.2493 21.6517 17.8512C21.1537 18.3492 20.5469 18.6141 19.8361 18.7589C19.4739 18.8326 19.0724 18.8774 18.6302 18.9049C18.6324 18.91 18.6347 18.9151 18.6369 18.9203C18.9098 19.5606 18.6769 20.3054 18.057 20.6568C17.8707 20.7625 17.6702 20.8005 17.5301 20.8222C17.3836 20.8449 17.2006 20.8629 16.9974 20.8828L16.9776 20.8847C16.8468 20.8975 16.7726 20.9049 16.7175 20.9128C16.6924 20.9164 16.6791 20.919 16.6739 20.9202C16.6583 20.9263 16.6477 20.9339 16.6409 20.9404C16.6358 20.9453 16.6321 20.9502 16.6294 20.9552C16.6282 20.9608 16.6265 20.97 16.6244 20.9835C16.6166 21.0338 16.6091 21.1026 16.5957 21.2287L16.5935 21.2494C16.5729 21.4427 16.554 21.6206 16.5298 21.7637C16.5066 21.9016 16.4648 22.105 16.3486 22.2934C15.9743 22.9002 15.2273 23.0878 14.6126 22.847C14.4208 22.7719 14.2668 22.6494 14.1557 22.5539C14.0419 22.4561 13.9078 22.3275 13.7577 22.1836L12 20.4985L10.2424 22.1836C10.0922 22.3275 9.95813 22.4561 9.84431 22.5539C9.73321 22.6494 9.57925 22.7719 9.38737 22.847C8.77269 23.0878 8.02567 22.9002 7.6514 22.2934C7.53523 22.105 7.49345 21.9016 7.47018 21.7637C7.44605 21.6206 7.42711 21.4427 7.40651 21.2493L7.40432 21.2287C7.39088 21.1026 7.38336 21.0338 7.37555 20.9835C7.37346 20.97 7.37178 20.9609 7.37065 20.9552C7.36789 20.9502 7.36415 20.9453 7.35908 20.9404C7.35227 20.9339 7.34174 20.9263 7.32614 20.9202C7.32086 20.919 7.30762 20.9164 7.28255 20.9128C7.22741 20.9049 7.15319 20.8975 7.02244 20.8847L7.00262 20.8828C6.79938 20.8629 6.61637 20.8449 6.46992 20.8222C6.32977 20.8005 6.12935 20.7625 5.94298 20.6568C5.32307 20.3054 5.09019 19.5606 5.36311 18.9203C5.36532 18.9151 5.36757 18.91 5.36985 18.9048C4.97118 18.8801 4.60714 18.8414 4.27635 18.7806C3.51836 18.6414 2.87328 18.3762 2.34835 17.8512C1.74643 17.2493 1.48754 16.4914 1.36652 15.5913C1.24996 14.7244 1.24998 13.6221 1.25 12.2545V8.14471C1.24998 6.77712 1.24996 5.6748 1.36652 4.80784C1.48754 3.90773 1.74643 3.14985 2.34835 2.54794C2.95027 1.94602 3.70814 1.68713 4.60825 1.56611C5.47522 1.44955 6.57754 1.44956 7.94513 1.44959ZM6.7329 17.4458L7.5487 16.6637L8.25788 15.9545C8.38413 13.9977 10.0113 12.4496 12 12.4496C13.9887 12.4496 15.6159 13.9977 15.7421 15.9545L16.4513 16.6637L17.3122 17.489L17.3117 17.4454C18.2984 17.4349 19.0017 17.398 19.5368 17.289C20.0513 17.1843 20.359 17.0225 20.591 16.7906C20.8678 16.5138 21.0482 16.1252 21.1469 15.3915C21.2484 14.6361 21.25 13.635 21.25 12.1996V8.19959C21.25 6.76417 21.2484 5.76306 21.1469 5.00771C21.0482 4.27393 20.8678 3.88536 20.591 3.6086C20.3142 3.33183 19.9257 3.15139 19.1919 3.05273C18.4365 2.95118 17.4354 2.94959 16 2.94959H8C6.56458 2.94959 5.56347 2.95118 4.80812 3.05273C4.07435 3.15139 3.68577 3.33183 3.40901 3.6086C3.13225 3.88536 2.9518 4.27393 2.85315 5.00771C2.75159 5.76306 2.75 6.76417 2.75 8.19959V12.1996C2.75 13.635 2.75159 14.6361 2.85315 15.3915C2.9518 16.1252 3.13225 16.5138 3.40901 16.7906C3.65246 17.034 3.98054 17.2012 4.54735 17.3053C5.08573 17.4042 5.78062 17.4364 6.7329 17.4458ZM15.4159 17.749C15.0094 18.644 14.2614 19.3509 13.3384 19.7037L14.7819 21.0875C14.9099 21.2103 15.0009 21.2972 15.0719 21.3618C15.081 21.286 15.0912 21.1915 15.1041 21.0698C15.1059 21.0533 15.1076 21.0364 15.1094 21.0192C15.1285 20.8356 15.1511 20.6181 15.2269 20.4217C15.3949 19.9867 15.7449 19.6581 16.1765 19.5049C16.3708 19.436 16.5859 19.4154 16.7795 19.3968C16.7969 19.3952 16.8143 19.3935 16.8314 19.3918C16.9388 19.3813 17.0267 19.3726 17.1 19.3648C17.043 19.309 16.973 19.2419 16.8857 19.1582L15.4159 17.749ZM12.0301 18.4494L12 18.4205L11.9699 18.4494C10.7411 18.4333 9.75 17.4322 9.75 16.1996C9.75 14.9569 10.7574 13.9496 12 13.9496C13.2426 13.9496 14.25 14.9569 14.25 16.1996C14.25 17.4322 13.2589 18.4333 12.0301 18.4494ZM10.6616 19.7037L9.21809 21.0875C9.09009 21.2103 8.99913 21.2972 8.92814 21.3618C8.91902 21.286 8.90885 21.1915 8.89588 21.0698C8.89412 21.0533 8.89237 21.0364 8.89059 21.0192C8.87152 20.8356 8.84895 20.6181 8.7731 20.4217C8.60513 19.9867 8.25507 19.6581 7.82352 19.5049C7.62918 19.436 7.41411 19.4154 7.22052 19.3968C7.20304 19.3952 7.18573 19.3935 7.16863 19.3918C7.0612 19.3813 6.97333 19.3726 6.90005 19.3648C6.95701 19.309 7.02695 19.2419 7.11427 19.1582L8.58407 17.749C8.99065 18.644 9.73856 19.3509 10.6616 19.7037ZM8.25 6.19959C8.25 5.78537 8.58579 5.44959 9 5.44959H15C15.4142 5.44959 15.75 5.78537 15.75 6.19959C15.75 6.6138 15.4142 6.94959 15 6.94959H9C8.58579 6.94959 8.25 6.6138 8.25 6.19959ZM6.25 9.69959C6.25 9.28537 6.58579 8.94959 7 8.94959H17C17.4142 8.94959 17.75 9.28537 17.75 9.69959C17.75 10.1138 17.4142 10.4496 17 10.4496H7C6.58579 10.4496 6.25 10.1138 6.25 9.69959Z" fill="#17171C"/>
</svg>
