<svg width="22" height="22" viewBox="0 0 22 22" fill="none" xmlns="http://www.w3.org/2000/svg">
<path fill-rule="evenodd" clip-rule="evenodd" d="M6.94513 0.449586H15.0549C16.4225 0.449565 17.5248 0.449548 18.3918 0.566109C19.2919 0.687125 20.0497 0.946019 20.6517 1.54794C21.2536 2.14985 21.5125 2.90773 21.6335 3.80783C21.75 4.6748 21.75 5.77712 21.75 7.14472V11.2545C21.75 12.622 21.75 13.7244 21.6335 14.5913C21.5125 15.4914 21.2536 16.2493 20.6517 16.8512C20.1537 17.3492 19.5469 17.6141 18.8361 17.7589C18.4739 17.8326 18.0724 17.8774 17.6302 17.9049C17.6324 17.91 17.6347 17.9151 17.6369 17.9203C17.9098 18.5606 17.6769 19.3054 17.057 19.6568C16.8707 19.7625 16.6702 19.8005 16.5301 19.8222C16.3836 19.8449 16.2006 19.8629 15.9974 19.8828L15.9776 19.8847C15.8468 19.8975 15.7726 19.9049 15.7175 19.9128C15.6924 19.9164 15.6791 19.919 15.6739 19.9202C15.6583 19.9263 15.6477 19.9339 15.6409 19.9404C15.6358 19.9453 15.6321 19.9502 15.6294 19.9552C15.6282 19.9608 15.6265 19.97 15.6244 19.9835C15.6166 20.0338 15.6091 20.1026 15.5957 20.2287L15.5935 20.2494C15.5729 20.4427 15.554 20.6206 15.5298 20.7637C15.5066 20.9016 15.4648 21.105 15.3486 21.2934C14.9743 21.9002 14.2273 22.0878 13.6126 21.847C13.4208 21.7719 13.2668 21.6494 13.1557 21.5539C13.0419 21.4561 12.9078 21.3275 12.7577 21.1836L11 19.4985L9.24236 21.1836C9.0922 21.3275 8.95813 21.4561 8.84431 21.5539C8.73321 21.6494 8.57925 21.7719 8.38737 21.847C7.77269 22.0878 7.02567 21.9002 6.6514 21.2934C6.53523 21.105 6.49345 20.9016 6.47018 20.7637C6.44605 20.6206 6.42711 20.4427 6.40651 20.2493L6.40432 20.2287C6.39088 20.1026 6.38336 20.0338 6.37555 19.9835C6.37346 19.97 6.37178 19.9609 6.37065 19.9552C6.36789 19.9502 6.36415 19.9453 6.35908 19.9404C6.35227 19.9339 6.34174 19.9263 6.32614 19.9202C6.32086 19.919 6.30762 19.9164 6.28255 19.9128C6.22741 19.9049 6.15319 19.8975 6.02244 19.8847L6.00262 19.8828C5.79938 19.8629 5.61637 19.8449 5.46992 19.8222C5.32977 19.8005 5.12935 19.7625 4.94298 19.6568C4.32307 19.3054 4.09019 18.5606 4.36311 17.9203C4.36532 17.9151 4.36757 17.91 4.36985 17.9048C3.97118 17.8801 3.60714 17.8414 3.27635 17.7806C2.51836 17.6414 1.87328 17.3762 1.34835 16.8512C0.746434 16.2493 0.487541 15.4914 0.366524 14.5913C0.249963 13.7244 0.24998 12.6221 0.250001 11.2545V7.14471C0.24998 5.77712 0.249963 4.6748 0.366524 3.80784C0.48754 2.90773 0.746434 2.14985 1.34835 1.54794C1.95027 0.94602 2.70814 0.687125 3.60825 0.566109C4.47522 0.449548 5.57754 0.449565 6.94513 0.449586ZM5.7329 16.4458L6.5487 15.6637L7.25788 14.9545C7.38413 12.9977 9.01128 11.4496 11 11.4496C12.9887 11.4496 14.6159 12.9977 14.7421 14.9545L15.4513 15.6637L16.3122 16.489L16.3117 16.4454C17.2984 16.4349 18.0017 16.398 18.5368 16.289C19.0513 16.1843 19.359 16.0225 19.591 15.7906C19.8678 15.5138 20.0482 15.1252 20.1469 14.3915C20.2484 13.6361 20.25 12.635 20.25 11.1996V7.19959C20.25 5.76417 20.2484 4.76306 20.1469 4.00771C20.0482 3.27393 19.8678 2.88536 19.591 2.6086C19.3142 2.33183 18.9257 2.15139 18.1919 2.05273C17.4365 1.95118 16.4354 1.94959 15 1.94959H7C5.56458 1.94959 4.56347 1.95118 3.80812 2.05273C3.07435 2.15139 2.68577 2.33183 2.40901 2.6086C2.13225 2.88536 1.9518 3.27393 1.85315 4.00771C1.75159 4.76306 1.75 5.76417 1.75 7.19959V11.1996C1.75 12.635 1.75159 13.6361 1.85315 14.3915C1.9518 15.1252 2.13225 15.5138 2.40901 15.7906C2.65246 16.034 2.98054 16.2012 3.54735 16.3053C4.08573 16.4042 4.78062 16.4364 5.7329 16.4458ZM14.4159 16.749C14.0094 17.644 13.2614 18.3509 12.3384 18.7037L13.7819 20.0875C13.9099 20.2103 14.0009 20.2972 14.0719 20.3618C14.081 20.286 14.0912 20.1915 14.1041 20.0698C14.1059 20.0533 14.1076 20.0364 14.1094 20.0192C14.1285 19.8356 14.1511 19.6181 14.2269 19.4217C14.3949 18.9867 14.7449 18.6581 15.1765 18.5049C15.3708 18.436 15.5859 18.4154 15.7795 18.3968C15.7969 18.3952 15.8143 18.3935 15.8314 18.3918C15.9388 18.3813 16.0267 18.3726 16.1 18.3648C16.043 18.309 15.973 18.2419 15.8857 18.1582L14.4159 16.749ZM11.0301 17.4494L11 17.4205L10.9699 17.4494C9.74112 17.4333 8.75 16.4322 8.75 15.1996C8.75 13.9569 9.75736 12.9496 11 12.9496C12.2426 12.9496 13.25 13.9569 13.25 15.1996C13.25 16.4322 12.2589 17.4333 11.0301 17.4494ZM9.66156 18.7037L8.21809 20.0875C8.09009 20.2103 7.99913 20.2972 7.92814 20.3618C7.91902 20.286 7.90885 20.1915 7.89588 20.0698C7.89412 20.0533 7.89237 20.0364 7.89059 20.0192C7.87152 19.8356 7.84895 19.6181 7.7731 19.4217C7.60513 18.9867 7.25507 18.6581 6.82352 18.5049C6.62918 18.436 6.41411 18.4154 6.22052 18.3968C6.20304 18.3952 6.18573 18.3935 6.16863 18.3918C6.0612 18.3813 5.97333 18.3726 5.90005 18.3648C5.95701 18.309 6.02695 18.2419 6.11427 18.1582L7.58407 16.749C7.99065 17.644 8.73856 18.3509 9.66156 18.7037ZM7.25 5.19959C7.25 4.78537 7.58579 4.44959 8 4.44959H14C14.4142 4.44959 14.75 4.78537 14.75 5.19959C14.75 5.6138 14.4142 5.94959 14 5.94959H8C7.58579 5.94959 7.25 5.6138 7.25 5.19959ZM5.25 8.69959C5.25 8.28537 5.58579 7.94959 6 7.94959H16C16.4142 7.94959 16.75 8.28537 16.75 8.69959C16.75 9.1138 16.4142 9.44959 16 9.44959H6C5.58579 9.44959 5.25 9.1138 5.25 8.69959Z" fill="#17171C"/>
</svg>
