<svg width="22" height="22" viewBox="0 0 22 22" fill="none" xmlns="http://www.w3.org/2000/svg">
<path d="M9.5 0.987671C7.02358 0.987671 5 3.01127 5 5.48767C5 7.96407 7.02358 9.98767 9.5 9.98767C11.9764 9.98767 14 7.96407 14 5.48767C14 3.01127 11.9764 0.987671 9.5 0.987671ZM9.5 2.48767C11.1658 2.48767 12.5 3.82193 12.5 5.48767C12.5 7.15341 11.1658 8.48767 9.5 8.48767C7.83425 8.48767 6.5 7.15341 6.5 5.48767C6.5 3.82193 7.83425 2.48767 9.5 2.48767Z" fill="#223671"/>
<path d="M7.25 11.4876C3.52348 11.4876 0.5 14.5111 0.5 18.2376V19.7376C0.50002 19.9365 0.579044 20.1273 0.719692 20.2679C0.86034 20.4086 1.05109 20.4876 1.25 20.4876H9.38577C9.48516 20.489 9.58383 20.4707 9.67606 20.4336C9.76828 20.3965 9.85222 20.3415 9.923 20.2717C9.99377 20.202 10.05 20.1188 10.0883 20.0271C10.1267 19.9354 10.1465 19.837 10.1465 19.7376C10.1465 19.6382 10.1267 19.5398 10.0883 19.4481C10.05 19.3564 9.99377 19.2733 9.923 19.2035C9.85222 19.1337 9.76828 19.0787 9.67606 19.0416C9.58383 19.0046 9.48516 18.9862 9.38577 18.9876H2V18.2376C2 15.3161 4.32853 12.9876 7.25 12.9876H10.2617C10.3611 12.989 10.4598 12.9707 10.552 12.9336C10.6442 12.8965 10.7281 12.8415 10.7989 12.7717C10.8697 12.702 10.9259 12.6188 10.9643 12.5271C11.0026 12.4354 11.0224 12.337 11.0224 12.2376C11.0224 12.1382 11.0026 12.0398 10.9643 11.9481C10.9259 11.8564 10.8697 11.7733 10.7989 11.7035C10.7281 11.6337 10.6442 11.5787 10.552 11.5416C10.4598 11.5046 10.3611 11.4862 10.2617 11.4876H7.25Z" fill="#223671"/>
<path d="M16.2401 11.4876C15.8218 11.4943 15.4918 11.8342 15.4975 12.2478V13.0637C15.0201 13.162 14.5753 13.3539 14.182 13.6159L13.6063 13.0402C13.4296 12.8584 13.2289 12.7899 13.0395 12.8C12.4714 12.8303 12.0003 13.5705 12.5458 14.1007L13.1244 14.6793C12.8638 15.0732 12.6721 15.5173 12.5751 15.9947H11.7607C10.7464 15.9804 10.7464 17.509 11.7607 17.4947H12.578C12.6761 17.9676 12.867 18.4078 13.1259 18.7983L12.5428 19.3813C11.8156 20.0883 12.8964 21.1691 13.6034 20.4418L14.185 19.8603C14.5777 20.1213 15.0211 20.3129 15.4975 20.411V21.2269C15.4832 22.2411 17.0117 22.2411 16.9974 21.2269V20.4125C17.4733 20.3153 17.9158 20.1231 18.3084 19.8632L18.8944 20.4491C19.1892 20.7523 19.6771 20.7523 19.9681 20.4521C20.259 20.1516 20.2517 19.6772 19.9546 19.3887L19.3716 18.8057C19.6327 18.4136 19.8238 17.9703 19.9223 17.4947H20.7397C21.1624 17.5007 21.5065 17.1556 21.4999 16.7374C21.4924 16.3192 21.1533 15.9891 20.7397 15.9948H19.9252C19.8277 15.5148 19.636 15.0675 19.3731 14.6721L19.9516 14.0935C20.2548 13.7988 20.2549 13.3109 19.9516 13.0198C19.8022 12.8751 19.6097 12.8041 19.4185 12.806C19.2272 12.8097 19.0375 12.8855 18.894 13.033L18.3139 13.613C17.9206 13.3522 17.4769 13.1597 16.9999 13.0623V12.2479C17.0074 11.8251 16.6608 11.4811 16.2427 11.4876L16.2401 11.4876ZM16.2506 14.4875C17.5021 14.4875 18.5005 15.4859 18.5005 16.7374C18.5005 17.9888 17.5021 18.9873 16.2506 18.9873C14.999 18.9873 14.0006 17.9888 14.0006 16.7374C14.0006 15.4859 14.999 14.4875 16.2506 14.4875Z" fill="#223671"/>
</svg>
