<svg width="18" height="21" viewBox="0 0 18 21" fill="none" xmlns="http://www.w3.org/2000/svg">
<path fill-rule="evenodd" clip-rule="evenodd" d="M1.17157 1.37116C0 2.54273 0 4.42835 0 8.19958V12.1996C0 15.9708 0 17.8564 1.17157 19.028C2.34315 20.1996 4.22876 20.1996 8 20.1996H10C13.7712 20.1996 15.6569 20.1996 16.8284 19.028C18 17.8564 18 15.9708 18 12.1996V8.19958C18 4.42835 18 2.54273 16.8284 1.37116C15.6569 0.199585 13.7712 0.199585 10 0.199585H8C4.22876 0.199585 2.34315 0.199585 1.17157 1.37116ZM4.25 6.19958C4.25 5.78537 4.58579 5.44958 5 5.44958H13C13.4142 5.44958 13.75 5.78537 13.75 6.19958C13.75 6.6138 13.4142 6.94958 13 6.94958H5C4.58579 6.94958 4.25 6.6138 4.25 6.19958ZM4.25 10.1996C4.25 9.78537 4.58579 9.44958 5 9.44958H13C13.4142 9.44958 13.75 9.78537 13.75 10.1996C13.75 10.6138 13.4142 10.9496 13 10.9496H5C4.58579 10.9496 4.25 10.6138 4.25 10.1996ZM5 13.4496C4.58579 13.4496 4.25 13.7854 4.25 14.1996C4.25 14.6138 4.58579 14.9496 5 14.9496H10C10.4142 14.9496 10.75 14.6138 10.75 14.1996C10.75 13.7854 10.4142 13.4496 10 13.4496H5Z" fill="#223671"/>
</svg>
