<svg width="24" height="25" viewBox="0 0 24 25" fill="none" xmlns="http://www.w3.org/2000/svg">
<path fill-rule="evenodd" clip-rule="evenodd" d="M10.9436 1.44959H13.0564C14.8942 1.44957 16.3498 1.44956 17.489 1.60272C18.6614 1.76035 19.6104 2.09247 20.3588 2.84083C21.1071 3.58919 21.4392 4.53814 21.5969 5.71056C21.75 6.84978 21.75 8.30541 21.75 10.1432V14.256C21.75 16.0938 21.75 17.5494 21.5969 18.6886C21.4392 19.861 21.1071 20.81 20.3588 21.5583C19.6104 22.3067 18.6614 22.6388 17.489 22.7964C16.3498 22.9496 14.8942 22.9496 13.0564 22.9496H10.9436C9.10583 22.9496 7.65019 22.9496 6.51098 22.7964C5.33856 22.6388 4.38961 22.3067 3.64124 21.5583C2.89288 20.81 2.56076 19.861 2.40314 18.6886C2.24997 17.5494 2.24998 16.0938 2.25 14.256V10.1432C2.24998 8.30541 2.24997 6.84978 2.40314 5.71056C2.56076 4.53814 2.89288 3.58919 3.64124 2.84083C4.38961 2.09247 5.33856 1.76035 6.51098 1.60272C7.65019 1.44956 9.10582 1.44957 10.9436 1.44959ZM6.71085 3.08934C5.70476 3.22461 5.12511 3.47828 4.7019 3.90149C4.27869 4.3247 4.02502 4.90434 3.88976 5.91043C3.75159 6.9381 3.75 8.29276 3.75 10.1996V14.1996C3.75 16.1064 3.75159 17.4611 3.88976 18.4887C4.02502 19.4948 4.27869 20.0745 4.7019 20.4977C5.12511 20.9209 5.70476 21.1746 6.71085 21.3098C7.73851 21.448 9.09318 21.4496 11 21.4496H13C14.9068 21.4496 16.2615 21.448 17.2892 21.3098C18.2952 21.1746 18.8749 20.9209 19.2981 20.4977C19.7213 20.0745 19.975 19.4948 20.1102 18.4887C20.2484 17.4611 20.25 16.1064 20.25 14.1996V10.1996C20.25 8.29277 20.2484 6.9381 20.1102 5.91043C19.975 4.90435 19.7213 4.3247 19.2981 3.90149C18.8749 3.47828 18.2952 3.22461 17.2892 3.08934C16.2615 2.95118 14.9068 2.94959 13 2.94959H11C9.09318 2.94959 7.73851 2.95118 6.71085 3.08934ZM7.25 10.1996C7.25 9.78537 7.58579 9.44959 8 9.44959H16C16.4142 9.44959 16.75 9.78537 16.75 10.1996C16.75 10.6138 16.4142 10.9496 16 10.9496H8C7.58579 10.9496 7.25 10.6138 7.25 10.1996ZM7.25 14.1996C7.25 13.7854 7.58579 13.4496 8 13.4496H13C13.4142 13.4496 13.75 13.7854 13.75 14.1996C13.75 14.6138 13.4142 14.9496 13 14.9496H8C7.58579 14.9496 7.25 14.6138 7.25 14.1996Z" fill="#213970"/>
</svg>
