<svg width="24" height="24" viewBox="0 0 24 24" fill="none" xmlns="http://www.w3.org/2000/svg">
<path fill-rule="evenodd" clip-rule="evenodd" d="M10.9436 1.44959H13.0564C14.8942 1.44957 16.3498 1.44956 17.489 1.60272C18.6614 1.76035 19.6104 2.09247 20.3588 2.84083C20.6516 3.13372 20.6516 3.6086 20.3588 3.90149C20.0659 4.19438 19.591 4.19438 19.2981 3.90149C18.8749 3.47828 18.2952 3.22461 17.2892 3.08934C16.2615 2.95118 14.9068 2.94959 13 2.94959H11C9.09318 2.94959 7.73851 2.95118 6.71085 3.08934C5.70476 3.22461 5.12511 3.47828 4.7019 3.90149C4.27869 4.3247 4.02502 4.90434 3.88976 5.91043C3.75159 6.9381 3.75 8.29276 3.75 10.1996V14.1996C3.75 16.1064 3.75159 17.4611 3.88976 18.4887C4.02502 19.4948 4.27869 20.0745 4.7019 20.4977C5.12511 20.9209 5.70476 21.1746 6.71085 21.3098C7.73851 21.448 9.09318 21.4496 11 21.4496H13C14.9068 21.4496 16.2615 21.448 17.2892 21.3098C18.2952 21.1746 18.8749 20.9209 19.2981 20.4977C19.994 19.8017 20.2048 18.7204 20.2414 16.1887C20.2474 15.7746 20.588 15.4437 21.0022 15.4497C21.4163 15.4557 21.7472 15.7963 21.7412 16.2104C21.7061 18.6379 21.549 20.3681 20.3588 21.5583C19.6104 22.3067 18.6614 22.6388 17.489 22.7964C16.3498 22.9496 14.8942 22.9496 13.0564 22.9496H10.9436C9.10583 22.9496 7.65019 22.9496 6.51098 22.7964C5.33856 22.6388 4.38961 22.3067 3.64124 21.5583C2.89288 20.81 2.56076 19.861 2.40314 18.6886C2.24997 17.5494 2.24998 16.0938 2.25 14.256V10.1432C2.24998 8.30541 2.24997 6.84978 2.40314 5.71056C2.56076 4.53814 2.89288 3.58919 3.64124 2.84083C4.38961 2.09247 5.33856 1.76035 6.51098 1.60272C7.65019 1.44956 9.10582 1.44957 10.9436 1.44959ZM18.1131 7.24514C19.1739 6.1844 20.8937 6.1844 21.9544 7.24514C23.0152 8.30589 23.0152 10.0257 21.9544 11.0864L17.1991 15.8418C16.9404 16.1005 16.7654 16.2756 16.5693 16.4285C16.3387 16.6084 16.0892 16.7626 15.8252 16.8885C15.6007 16.9954 15.3659 17.0737 15.0187 17.1893L12.9351 17.8839C12.4751 18.0372 11.9679 17.9175 11.625 17.5746C11.2821 17.2317 11.1624 16.7245 11.3157 16.2645L11.9963 14.2228C12.001 14.2087 12.0056 14.1947 12.0102 14.1809C12.1259 13.8337 12.2042 13.5989 12.3111 13.3744C12.437 13.1104 12.5912 12.8609 12.7711 12.6302C12.924 12.4342 13.099 12.2592 13.3578 12.0005C13.3681 11.9902 13.3785 11.9798 13.3891 11.9692L18.1131 7.24514ZM20.8938 8.3058C20.4188 7.83085 19.6488 7.83085 19.1738 8.3058L18.992 8.48759C19.0019 8.52107 19.0132 8.55668 19.0262 8.59411C19.1202 8.86524 19.2988 9.22385 19.6372 9.56234C19.9757 9.90083 20.3343 10.0793 20.6055 10.1734C20.6429 10.1864 20.6785 10.1977 20.712 10.2076L20.8938 10.0258C21.3687 9.55082 21.3687 8.78076 20.8938 8.3058ZM19.5664 11.3531C19.2485 11.1862 18.9053 10.9517 18.5766 10.623C18.2479 10.2943 18.0134 9.95104 17.8464 9.63316L14.4497 13.0299C14.1487 13.3309 14.043 13.4384 13.9538 13.5528C13.841 13.6975 13.7442 13.8541 13.6652 14.0198C13.6028 14.1507 13.5539 14.2932 13.4193 14.6972L13.019 15.8981L13.3015 16.1806L14.5024 15.7803C14.9064 15.6456 15.0489 15.5968 15.1798 15.5344C15.3455 15.4554 15.5021 15.3586 15.6468 15.2458C15.7612 15.1566 15.8686 15.0509 16.1697 14.7498L19.5664 11.3531ZM7.25 9.19959C7.25 8.78537 7.58579 8.44959 8 8.44959H14.5C14.9142 8.44959 15.25 8.78537 15.25 9.19959C15.25 9.6138 14.9142 9.94959 14.5 9.94959H8C7.58579 9.94959 7.25 9.6138 7.25 9.19959ZM7.25 13.1996C7.25 12.7854 7.58579 12.4496 8 12.4496H10.5C10.9142 12.4496 11.25 12.7854 11.25 13.1996C11.25 13.6138 10.9142 13.9496 10.5 13.9496H8C7.58579 13.9496 7.25 13.6138 7.25 13.1996ZM7.25 17.1996C7.25 16.7854 7.58579 16.4496 8 16.4496H9.5C9.91421 16.4496 10.25 16.7854 10.25 17.1996C10.25 17.6138 9.91421 17.9496 9.5 17.9496H8C7.58579 17.9496 7.25 17.6138 7.25 17.1996Z" fill="#17171C"/>
</svg>
