<svg width="21" height="22" viewBox="0 0 21 22" fill="none" xmlns="http://www.w3.org/2000/svg">
<path fill-rule="evenodd" clip-rule="evenodd" d="M8.94358 0.449585H11.0564C12.8942 0.449569 14.3498 0.449557 15.489 0.60272C16.6614 0.760348 17.6104 1.09247 18.3588 1.84083C18.6516 2.13372 18.6516 2.6086 18.3588 2.90149C18.0659 3.19438 17.591 3.19438 17.2981 2.90149C16.8749 2.47828 16.2952 2.22461 15.2892 2.08934C14.2615 1.95118 12.9068 1.94959 11 1.94959H9C7.09318 1.94959 5.73851 1.95118 4.71085 2.08934C3.70476 2.22461 3.12511 2.47828 2.7019 2.90149C2.27869 3.3247 2.02502 3.90434 1.88976 4.91043C1.75159 5.9381 1.75 7.29276 1.75 9.19958V13.1996C1.75 15.1064 1.75159 16.4611 1.88976 17.4887C2.02502 18.4948 2.27869 19.0745 2.7019 19.4977C3.12511 19.9209 3.70476 20.1746 4.71085 20.3098C5.73851 20.448 7.09318 20.4496 9 20.4496H11C12.9068 20.4496 14.2615 20.448 15.2892 20.3098C16.2952 20.1746 16.8749 19.9209 17.2981 19.4977C17.994 18.8017 18.2048 17.7204 18.2414 15.1887C18.2474 14.7746 18.588 14.4437 19.0022 14.4497C19.4163 14.4557 19.7472 14.7963 19.7412 15.2104C19.7061 17.6379 19.549 19.3681 18.3588 20.5583C17.6104 21.3067 16.6614 21.6388 15.489 21.7964C14.3498 21.9496 12.8942 21.9496 11.0564 21.9496H8.94359C7.10583 21.9496 5.65019 21.9496 4.51098 21.7964C3.33856 21.6388 2.38961 21.3067 1.64124 20.5583C0.89288 19.81 0.560763 18.861 0.403135 17.6886C0.249972 16.5494 0.249984 15.0938 0.25 13.256V9.14317C0.249984 7.30541 0.249972 5.84978 0.403135 4.71056C0.560763 3.53814 0.89288 2.58919 1.64124 1.84083C2.38961 1.09247 3.33856 0.760348 4.51098 0.60272C5.65019 0.449557 7.10582 0.449569 8.94358 0.449585ZM16.1131 6.24514C17.1739 5.1844 18.8937 5.1844 19.9544 6.24514C21.0152 7.30589 21.0152 9.0257 19.9544 10.0864L15.1991 14.8418C14.9404 15.1005 14.7654 15.2756 14.5693 15.4285C14.3387 15.6084 14.0892 15.7626 13.8252 15.8885C13.6007 15.9954 13.3659 16.0737 13.0187 16.1893L10.9351 16.8839C10.4751 17.0372 9.96787 16.9175 9.62499 16.5746C9.2821 16.2317 9.16237 15.7245 9.31571 15.2645L9.99627 13.2228C10.001 13.2087 10.0056 13.1947 10.0102 13.1809C10.1259 12.8337 10.2042 12.5989 10.3111 12.3744C10.437 12.1104 10.5912 11.8609 10.7711 11.6302C10.924 11.4342 11.099 11.2592 11.3578 11.0005C11.3681 10.9902 11.3785 10.9798 11.3891 10.9692L16.1131 6.24514ZM18.8938 7.3058C18.4188 6.83085 17.6488 6.83085 17.1738 7.3058L16.992 7.48759C17.0019 7.52107 17.0132 7.55668 17.0262 7.59411C17.1202 7.86524 17.2988 8.22385 17.6372 8.56234C17.9757 8.90083 18.3343 9.07934 18.6055 9.1734C18.6429 9.18639 18.6785 9.19771 18.712 9.20757L18.8938 9.02578C19.3687 8.55082 19.3687 7.78076 18.8938 7.3058ZM17.5664 10.3531C17.2485 10.1862 16.9053 9.95173 16.5766 9.623C16.2479 9.29428 16.0134 8.95104 15.8464 8.63316L12.4497 12.0299C12.1487 12.3309 12.043 12.4384 11.9538 12.5528C11.841 12.6975 11.7442 12.8541 11.6652 13.0198C11.6028 13.1507 11.5539 13.2932 11.4193 13.6972L11.019 14.8981L11.3015 15.1806L12.5024 14.7803C12.9064 14.6456 13.0489 14.5968 13.1798 14.5344C13.3455 14.4554 13.5021 14.3586 13.6468 14.2458C13.7612 14.1566 13.8686 14.0509 14.1697 13.7498L17.5664 10.3531ZM5.25 8.19959C5.25 7.78537 5.58579 7.44959 6 7.44959H12.5C12.9142 7.44959 13.25 7.78537 13.25 8.19959C13.25 8.6138 12.9142 8.94959 12.5 8.94959H6C5.58579 8.94959 5.25 8.6138 5.25 8.19959ZM5.25 12.1996C5.25 11.7854 5.58579 11.4496 6 11.4496H8.5C8.91422 11.4496 9.25 11.7854 9.25 12.1996C9.25 12.6138 8.91422 12.9496 8.5 12.9496H6C5.58579 12.9496 5.25 12.6138 5.25 12.1996ZM5.25 16.1996C5.25 15.7854 5.58579 15.4496 6 15.4496H7.5C7.91421 15.4496 8.25 15.7854 8.25 16.1996C8.25 16.6138 7.91421 16.9496 7.5 16.9496H6C5.58579 16.9496 5.25 16.6138 5.25 16.1996Z" fill="#17171C"/>
</svg>
