<svg width="22" height="21" viewBox="0 0 22 21" fill="none" xmlns="http://www.w3.org/2000/svg">
<path fill-rule="evenodd" clip-rule="evenodd" d="M9.56095 0.449587H12.4395C12.553 0.44957 12.6414 0.449556 12.725 0.454618C13.7854 0.518841 14.714 1.18813 15.1102 2.17384C15.1415 2.25154 15.1694 2.33536 15.2053 2.44306L15.2374 2.53939C15.2563 2.59608 15.2617 2.61213 15.2663 2.62477C15.4435 3.11457 15.8799 3.45536 16.3353 3.49969C16.3687 3.50151 16.402 3.50339 16.435 3.50534C18.1115 3.60425 19.4013 3.88335 20.3588 4.84083C21.1071 5.58919 21.4392 6.53814 21.5969 7.71057C21.75 8.84978 21.75 10.3054 21.75 12.1432V12.256C21.75 14.0938 21.75 15.5494 21.5969 16.6886C21.4392 17.861 21.1071 18.81 20.3588 19.5583C19.6104 20.3067 18.6614 20.6388 17.489 20.7965C16.3498 20.9496 14.8942 20.9496 13.0564 20.9496H8.94359C7.10583 20.9496 5.65019 20.9496 4.51098 20.7965C3.33856 20.6388 2.38961 20.3067 1.64124 19.5583C0.89288 18.81 0.560763 17.861 0.403135 16.6886C0.249972 15.5494 0.249984 14.0938 0.25 12.256V12.1432C0.249984 10.3054 0.249972 8.84978 0.403135 7.71057C0.560763 6.53814 0.89288 5.58919 1.64124 4.84083C2.59872 3.88335 3.88854 3.60425 5.56498 3.50534C5.59801 3.50339 5.63127 3.50151 5.66476 3.49969C6.12033 3.45535 6.55706 3.1144 6.73417 2.62479C6.73877 2.61206 6.74407 2.59636 6.76305 2.53939L6.79518 2.44302C6.83105 2.33536 6.85898 2.25153 6.89021 2.17384C7.28647 1.18813 8.21507 0.518841 9.2755 0.454618C9.35909 0.449556 9.44744 0.44957 9.56095 0.449587ZM5.64194 5.00341C5.68636 5.00205 5.7305 4.99956 5.77435 4.99597C6.64675 4.94985 7.69718 4.94959 9 4.94959H13C14.3028 4.94959 15.3533 4.94985 16.2256 4.99597C16.2695 4.99956 16.3136 5.00205 16.3581 5.00341C17.9619 5.09904 18.7561 5.35954 19.2981 5.90149C19.4905 6.09389 19.6479 6.31863 19.775 6.60107C17.9479 7.78723 16.7474 8.55243 15.7365 9.05743C15.6701 8.7112 15.3656 8.44959 15 8.44959C14.5858 8.44959 14.25 8.78538 14.25 9.19959V9.65754C12.1306 10.2971 9.86944 10.2971 7.75 9.65749V9.19959C7.75 8.78538 7.41421 8.44959 7 8.44959C6.63442 8.44959 6.32993 8.71116 6.26347 9.05736C5.25261 8.55234 4.0521 7.78714 2.22505 6.60099C2.35217 6.31859 2.50952 6.09388 2.7019 5.90149C3.24386 5.35954 4.03808 5.09904 5.64194 5.00341ZM1.86034 8.15261C1.75136 9.14901 1.75 10.4389 1.75 12.1996C1.75 14.1064 1.75159 15.4611 1.88976 16.4887C2.02502 17.4948 2.27869 18.0745 2.7019 18.4977C3.12511 18.9209 3.70476 19.1746 4.71085 19.3098C5.73851 19.448 7.09318 19.4496 9 19.4496H13C14.9068 19.4496 16.2615 19.448 17.2892 19.3098C18.2952 19.1746 18.8749 18.9209 19.2981 18.4977C19.7213 18.0745 19.975 17.4948 20.1102 16.4887C20.2484 15.4611 20.25 14.1064 20.25 12.1996C20.25 10.439 20.2486 9.14909 20.1397 8.1527C18.2527 9.37548 16.9585 10.1847 15.75 10.7042V11.1996C15.75 11.6138 15.4142 11.9496 15 11.9496C14.5913 11.9496 14.2589 11.6226 14.2502 11.216C12.1199 11.7776 9.8801 11.7776 7.74982 11.216C7.74112 11.6226 7.40875 11.9496 7 11.9496C6.58579 11.9496 6.25 11.6138 6.25 11.1996V10.7041C5.0415 10.1846 3.74736 9.37538 1.86034 8.15261ZM13.992 3.45048C13.6812 3.44959 13.3575 3.44959 13.0206 3.44959H8.97944C8.64269 3.44959 8.31915 3.44959 8.00843 3.45047C8.06013 3.34821 8.10571 3.24285 8.14472 3.13503C8.15664 3.10206 8.16834 3.06697 8.18336 3.02189L8.18608 3.01374L8.21174 2.93676C8.25708 2.80075 8.2699 2.76332 8.28196 2.73334C8.46208 2.28529 8.88416 1.98107 9.36618 1.95188C9.39844 1.94992 9.43799 1.94959 9.58137 1.94959H12.4191C12.5625 1.94959 12.602 1.94992 12.6343 1.95188C13.1163 1.98107 13.5384 2.28529 13.7185 2.73334C13.7306 2.76333 13.7434 2.80074 13.7887 2.93676L13.817 3.02171M13.8557 3.13505C13.8947 3.24287 13.9403 3.34822 13.992 3.45048L13.8557 3.13505Z" fill="#17171C"/>
</svg>
