<svg width="24" height="24" viewBox="0 0 24 24" fill="none" xmlns="http://www.w3.org/2000/svg">
<path fill-rule="evenodd" clip-rule="evenodd" d="M10.561 2.44959H13.4395C13.553 2.44957 13.6414 2.44956 13.725 2.45462C14.7854 2.51884 15.714 3.18813 16.1102 4.17384C16.1415 4.25154 16.1694 4.33536 16.2053 4.44306L16.2374 4.53939C16.2563 4.59608 16.2617 4.61213 16.2663 4.62477C16.4435 5.11457 16.8799 5.45536 17.3353 5.49969C17.3687 5.50151 17.402 5.50339 17.435 5.50534C19.1115 5.60425 20.4013 5.88335 21.3588 6.84083C22.1071 7.58919 22.4392 8.53814 22.5969 9.71057C22.75 10.8498 22.75 12.3054 22.75 14.1432V14.256C22.75 16.0938 22.75 17.5494 22.5969 18.6886C22.4392 19.861 22.1071 20.81 21.3588 21.5583C20.6104 22.3067 19.6614 22.6388 18.489 22.7965C17.3498 22.9496 15.8942 22.9496 14.0564 22.9496H9.94359C8.10583 22.9496 6.65019 22.9496 5.51098 22.7965C4.33856 22.6388 3.38961 22.3067 2.64124 21.5583C1.89288 20.81 1.56076 19.861 1.40314 18.6886C1.24997 17.5494 1.24998 16.0938 1.25 14.256V14.1432C1.24998 12.3054 1.24997 10.8498 1.40314 9.71057C1.56076 8.53814 1.89288 7.58919 2.64124 6.84083C3.59872 5.88335 4.88854 5.60425 6.56498 5.50534C6.59801 5.50339 6.63127 5.50151 6.66476 5.49969C7.12033 5.45535 7.55706 5.1144 7.73417 4.62479C7.73877 4.61206 7.74407 4.59636 7.76305 4.53939L7.79518 4.44302C7.83105 4.33536 7.85898 4.25153 7.89021 4.17384C8.28647 3.18813 9.21507 2.51884 10.2755 2.45462C10.3591 2.44956 10.4474 2.44957 10.561 2.44959ZM6.64194 7.00341C6.68636 7.00205 6.7305 6.99956 6.77435 6.99597C7.64675 6.94985 8.69718 6.94959 10 6.94959H14C15.3028 6.94959 16.3533 6.94985 17.2256 6.99597C17.2695 6.99956 17.3136 7.00205 17.3581 7.00341C18.9619 7.09904 19.7561 7.35954 20.2981 7.90149C20.4905 8.09389 20.6479 8.31863 20.775 8.60107C18.9479 9.78723 17.7474 10.5524 16.7365 11.0574C16.6701 10.7112 16.3656 10.4496 16 10.4496C15.5858 10.4496 15.25 10.7854 15.25 11.1996V11.6575C13.1306 12.2971 10.8694 12.2971 8.75 11.6575V11.1996C8.75 10.7854 8.41421 10.4496 8 10.4496C7.63442 10.4496 7.32993 10.7112 7.26347 11.0574C6.25261 10.5523 5.0521 9.78714 3.22505 8.60099C3.35217 8.31859 3.50952 8.09388 3.7019 7.90149C4.24386 7.35954 5.03808 7.09904 6.64194 7.00341ZM2.86034 10.1526C2.75136 11.149 2.75 12.4389 2.75 14.1996C2.75 16.1064 2.75159 17.4611 2.88976 18.4887C3.02502 19.4948 3.27869 20.0745 3.7019 20.4977C4.12511 20.9209 4.70476 21.1746 5.71085 21.3098C6.73851 21.448 8.09318 21.4496 10 21.4496H14C15.9068 21.4496 17.2615 21.448 18.2892 21.3098C19.2952 21.1746 19.8749 20.9209 20.2981 20.4977C20.7213 20.0745 20.975 19.4948 21.1102 18.4887C21.2484 17.4611 21.25 16.1064 21.25 14.1996C21.25 12.439 21.2486 11.1491 21.1397 10.1527C19.2527 11.3755 17.9585 12.1847 16.75 12.7042V13.1996C16.75 13.6138 16.4142 13.9496 16 13.9496C15.5913 13.9496 15.2589 13.6226 15.2502 13.216C13.1199 13.7776 10.8801 13.7776 8.74982 13.216C8.74112 13.6226 8.40875 13.9496 8 13.9496C7.58579 13.9496 7.25 13.6138 7.25 13.1996V12.7041C6.0415 12.1846 4.74736 11.3754 2.86034 10.1526ZM14.992 5.45048C14.6812 5.44959 14.3575 5.44959 14.0206 5.44959H9.97944C9.64269 5.44959 9.31915 5.44959 9.00843 5.45047C9.06013 5.34821 9.10571 5.24285 9.14472 5.13503C9.15664 5.10206 9.16834 5.06697 9.18336 5.02189L9.18608 5.01374L9.21174 4.93676C9.25708 4.80075 9.2699 4.76332 9.28196 4.73334C9.46208 4.28529 9.88416 3.98107 10.3662 3.95188C10.3984 3.94992 10.438 3.94959 10.5814 3.94959H13.4191C13.5625 3.94959 13.602 3.94992 13.6343 3.95188C14.1163 3.98107 14.5384 4.28529 14.7185 4.73334C14.7306 4.76333 14.7434 4.80074 14.7887 4.93676L14.817 5.02171M14.8557 5.13505C14.8947 5.24287 14.9403 5.34822 14.992 5.45048L14.8557 5.13505Z" fill="#17171C"/>
</svg>
