<svg width="24" height="24" viewBox="0 0 24 24" fill="none" xmlns="http://www.w3.org/2000/svg">
<path d="M14.9453 1.44959C13.5778 1.44957 12.4754 1.44955 11.6085 1.56611C10.7084 1.68713 9.95048 1.94602 9.34857 2.54794C8.82363 3.07287 8.55839 3.71794 8.41916 4.47594C8.28387 5.2125 8.25799 6.11388 8.25196 7.19541C8.24966 7.60962 8.58357 7.94727 8.99778 7.94957C9.41199 7.95188 9.74964 7.61797 9.75194 7.20376C9.75803 6.11026 9.78643 5.33518 9.89448 4.74693C9.99859 4.18012 10.1658 3.85205 10.4092 3.6086C10.686 3.33183 11.0746 3.15139 11.8083 3.05273C12.5637 2.95118 13.5648 2.94959 15.0002 2.94959H16.0002C17.4356 2.94959 18.4367 2.95118 19.1921 3.05273C19.9259 3.15139 20.3144 3.33183 20.5912 3.6086C20.868 3.88536 21.0484 4.27393 21.1471 5.00771C21.2486 5.76306 21.2502 6.76417 21.2502 8.19959V16.1996C21.2502 17.635 21.2486 18.6361 21.1471 19.3915C21.0484 20.1252 20.868 20.5138 20.5912 20.7906C20.3144 21.0673 19.9259 21.2478 19.1921 21.3464C18.4367 21.448 17.4356 21.4496 16.0002 21.4496H15.0002C13.5648 21.4496 12.5637 21.448 11.8083 21.3464C11.0746 21.2478 10.686 21.0673 10.4092 20.7906C10.1658 20.5471 9.99859 20.2191 9.89448 19.6522C9.78643 19.064 9.75803 18.2889 9.75194 17.1954C9.74964 16.7812 9.41199 16.4473 8.99778 16.4496C8.58357 16.4519 8.24966 16.7896 8.25196 17.2038C8.25799 18.2853 8.28387 19.1867 8.41916 19.9232C8.55839 20.6812 8.82363 21.3263 9.34857 21.8512C9.95048 22.4532 10.7084 22.712 11.6085 22.8331C12.4754 22.9496 13.5778 22.9496 14.9453 22.9496H16.0551C17.4227 22.9496 18.525 22.9496 19.392 22.8331C20.2921 22.712 21.0499 22.4532 21.6519 21.8512C22.2538 21.2493 22.5127 20.4914 22.6337 19.5913C22.7503 18.7244 22.7502 17.622 22.7502 16.2545V8.14472C22.7502 6.77713 22.7503 5.6748 22.6337 4.80784C22.5127 3.90773 22.2538 3.14985 21.6519 2.54794C21.0499 1.94602 20.2921 1.68713 19.392 1.56611C18.525 1.44955 17.4227 1.44957 16.0551 1.44959H14.9453Z" fill="#E74F39"/>
<path d="M15 11.4496C15.4142 11.4496 15.75 11.7854 15.75 12.1996C15.75 12.6138 15.4142 12.9496 15 12.9496H4.02744L5.98809 14.6301C6.30259 14.8997 6.33901 15.3732 6.06944 15.6877C5.79988 16.0022 5.3264 16.0386 5.01191 15.769L1.51191 12.769C1.34567 12.6265 1.25 12.4185 1.25 12.1996C1.25 11.9806 1.34567 11.7726 1.51191 11.6301L5.01191 8.63014C5.3264 8.36058 5.79988 8.397 6.06944 8.71149C6.33901 9.02599 6.30259 9.49946 5.98809 9.76903L4.02744 11.4496H15Z" fill="#E74F39"/>
</svg>
