<svg width="22" height="22" viewBox="0 0 22 22" fill="none" xmlns="http://www.w3.org/2000/svg">
<path d="M13.9453 0.449585C12.5778 0.449565 11.4754 0.449549 10.6085 0.566109C9.70836 0.687126 8.95048 0.946019 8.34857 1.54794C7.82363 2.07287 7.55839 2.71794 7.41916 3.47594C7.28387 4.2125 7.25799 5.11388 7.25196 6.19541C7.24966 6.60962 7.58357 6.94727 7.99778 6.94957C8.41199 6.95188 8.74964 6.61797 8.75194 6.20376C8.75803 5.11026 8.78643 4.33518 8.89448 3.74693C8.99859 3.18012 9.16577 2.85205 9.40923 2.6086C9.68599 2.33183 10.0746 2.15139 10.8083 2.05273C11.5637 1.95118 12.5648 1.94959 14.0002 1.94959H15.0002C16.4356 1.94959 17.4367 1.95118 18.1921 2.05273C18.9259 2.15139 19.3144 2.33183 19.5912 2.6086C19.868 2.88536 20.0484 3.27393 20.1471 4.00771C20.2486 4.76306 20.2502 5.76417 20.2502 7.19959V15.1996C20.2502 16.635 20.2486 17.6361 20.1471 18.3915C20.0484 19.1252 19.868 19.5138 19.5912 19.7906C19.3144 20.0673 18.9259 20.2478 18.1921 20.3464C17.4367 20.448 16.4356 20.4496 15.0002 20.4496H14.0002C12.5648 20.4496 11.5637 20.448 10.8083 20.3464C10.0746 20.2478 9.68599 20.0673 9.40923 19.7906C9.16577 19.5471 8.99859 19.2191 8.89448 18.6522C8.78643 18.064 8.75803 17.2889 8.75194 16.1954C8.74964 15.7812 8.41199 15.4473 7.99778 15.4496C7.58357 15.4519 7.24966 15.7896 7.25196 16.2038C7.25799 17.2853 7.28387 18.1867 7.41916 18.9232C7.55839 19.6812 7.82363 20.3263 8.34857 20.8512C8.95048 21.4532 9.70836 21.712 10.6085 21.8331C11.4754 21.9496 12.5778 21.9496 13.9453 21.9496H15.0551C16.4227 21.9496 17.525 21.9496 18.392 21.8331C19.2921 21.712 20.0499 21.4532 20.6519 20.8512C21.2538 20.2493 21.5127 19.4914 21.6337 18.5913C21.7503 17.7244 21.7502 16.622 21.7502 15.2545V7.14472C21.7502 5.77713 21.7503 4.6748 21.6337 3.80784C21.5127 2.90773 21.2538 2.14985 20.6519 1.54794C20.0499 0.946019 19.2921 0.687126 18.392 0.566109C17.525 0.449549 16.4227 0.449565 15.0551 0.449585H13.9453Z" fill="#E74F39"/>
<path d="M14 10.4496C14.4142 10.4496 14.75 10.7854 14.75 11.1996C14.75 11.6138 14.4142 11.9496 14 11.9496H3.02744L4.98809 13.6301C5.30259 13.8997 5.33901 14.3732 5.06944 14.6877C4.79988 15.0022 4.3264 15.0386 4.01191 14.769L0.511907 11.769C0.345672 11.6265 0.25 11.4185 0.25 11.1996C0.25 10.9806 0.345672 10.7726 0.511906 10.6301L4.01191 7.63014C4.3264 7.36058 4.79988 7.397 5.06944 7.71149C5.33901 8.02599 5.30259 8.49946 4.98809 8.76903L3.02744 10.4496H14Z" fill="#E74F39"/>
</svg>
