<svg width="24" height="25" viewBox="0 0 24 25" fill="none" xmlns="http://www.w3.org/2000/svg">
<path d="M13.2109 2.19971C12.8873 2.19971 12.625 2.46205 12.625 2.78564V11.0278C12.625 11.3514 12.8873 11.6138 13.2109 11.6138H21.4141C21.7377 11.6138 22 11.3514 22 11.0278C22 6.1792 18.0654 2.19971 13.2109 2.19971ZM13.7969 10.4419V3.394C17.5319 3.68092 20.522 6.68732 20.8061 10.4419H13.7969Z" fill="#223671"/>
<path d="M14.2966 20.887L11.4531 13.2658V5.16846C11.4531 4.84486 11.1908 4.58252 10.8672 4.58252C6.04203 4.58252 2 8.49451 2 13.3716C2 18.2122 6.00285 22.1997 10.8672 22.1997C11.9288 22.1997 12.9673 22.0115 13.9539 21.6403C14.2562 21.5265 14.4095 21.1896 14.2966 20.887ZM10.8672 21.0278C6.62398 21.0278 3.17188 17.5933 3.17188 13.3716C3.17188 9.36654 6.3107 6.0735 10.2812 5.77627V13.3716C10.2812 13.4415 10.2937 13.5109 10.3182 13.5764L12.9865 20.7281C12.3007 20.9272 11.5903 21.0278 10.8672 21.0278Z" fill="#223671"/>
<path d="M21.414 12.7856H13.2109C13.0189 12.7856 12.8391 12.8797 12.7296 13.0374C12.6201 13.1952 12.5949 13.3965 12.662 13.5764L15.5424 21.2967C15.6562 21.6015 15.9956 21.754 16.2977 21.6403C19.7084 20.3571 22 17.0342 22 13.3716C22 13.048 21.7376 12.7856 21.414 12.7856ZM16.4269 20.3149L14.0549 13.9536H20.8055C20.5936 16.6992 18.9066 19.1525 16.4269 20.3149Z" fill="#223671"/>
</svg>
