<svg width="22" height="22" viewBox="0 0 22 22" fill="none" xmlns="http://www.w3.org/2000/svg">
<path fill-rule="evenodd" clip-rule="evenodd" d="M3.25 7.87457C1.53832 7.52712 0.25 6.0138 0.25 4.19959C0.25 2.12852 1.92893 0.449585 4 0.449585C5.81422 0.449585 7.32753 1.73791 7.67499 3.44959H14.325C14.6725 1.73791 16.1858 0.449585 18 0.449585C20.0711 0.449585 21.75 2.12852 21.75 4.19959C21.75 6.0138 20.4617 7.52712 18.75 7.87457V14.5246C20.4617 14.8721 21.75 16.3854 21.75 18.1996C21.75 20.2707 20.0711 21.9496 18 21.9496C16.1858 21.9496 14.6725 20.6613 14.325 18.9496H7.67499C7.32753 20.6613 5.81422 21.9496 4 21.9496C1.92893 21.9496 0.25 20.2707 0.25 18.1996C0.25 16.3854 1.53832 14.8721 3.25 14.5246L3.25 7.87457ZM1.75 4.19959C1.75 2.95694 2.75736 1.94959 4 1.94959C5.24264 1.94959 6.25 2.95694 6.25 4.19959C6.25 5.44223 5.24264 6.44959 4 6.44959C2.75736 6.44959 1.75 5.44223 1.75 4.19959ZM4.75 14.5246L4.75 7.87457C6.21935 7.57631 7.37672 6.41893 7.67499 4.94959H14.325C14.6233 6.41893 15.7807 7.57631 17.25 7.87457V14.5246C15.7807 14.8229 14.6233 15.9802 14.325 17.4496H7.67499C7.37672 15.9802 6.21935 14.8229 4.75 14.5246ZM4 15.9496C2.75736 15.9496 1.75 16.9569 1.75 18.1996C1.75 19.4422 2.75736 20.4496 4 20.4496C5.24264 20.4496 6.25 19.4422 6.25 18.1996C6.25 16.9569 5.24264 15.9496 4 15.9496ZM20.25 4.19959C20.25 5.44223 19.2426 6.44959 18 6.44959C16.7574 6.44959 15.75 5.44223 15.75 4.19959C15.75 2.95694 16.7574 1.94959 18 1.94959C19.2426 1.94959 20.25 2.95694 20.25 4.19959ZM15.75 18.1996C15.75 16.9569 16.7574 15.9496 18 15.9496C19.2426 15.9496 20.25 16.9569 20.25 18.1996C20.25 19.4422 19.2426 20.4496 18 20.4496C16.7574 20.4496 15.75 19.4422 15.75 18.1996Z" fill="#17171C"/>
</svg>
