<svg width="24" height="24" viewBox="0 0 24 24" fill="none" xmlns="http://www.w3.org/2000/svg">
<path fill-rule="evenodd" clip-rule="evenodd" d="M4.25 8.87457C2.53832 8.52712 1.25 7.0138 1.25 5.19959C1.25 3.12852 2.92893 1.44958 5 1.44958C6.81422 1.44958 8.32753 2.73791 8.67499 4.44959H15.325C15.6725 2.73791 17.1858 1.44958 19 1.44958C21.0711 1.44958 22.75 3.12852 22.75 5.19959C22.75 7.0138 21.4617 8.52712 19.75 8.87457V15.5246C21.4617 15.8721 22.75 17.3854 22.75 19.1996C22.75 21.2707 21.0711 22.9496 19 22.9496C17.1858 22.9496 15.6725 21.6613 15.325 19.9496H8.67499C8.32753 21.6613 6.81422 22.9496 5 22.9496C2.92893 22.9496 1.25 21.2707 1.25 19.1996C1.25 17.3854 2.53832 15.8721 4.25 15.5246L4.25 8.87457ZM2.75 5.19959C2.75 3.95694 3.75736 2.94959 5 2.94959C6.24264 2.94959 7.25 3.95694 7.25 5.19959C7.25 6.44223 6.24264 7.44959 5 7.44959C3.75736 7.44959 2.75 6.44223 2.75 5.19959ZM5.75 15.5246L5.75 8.87457C7.21935 8.57631 8.37672 7.41893 8.67499 5.94959H15.325C15.6233 7.41893 16.7807 8.57631 18.25 8.87457V15.5246C16.7807 15.8229 15.6233 16.9802 15.325 18.4496H8.67499C8.37672 16.9802 7.21935 15.8229 5.75 15.5246ZM5 16.9496C3.75736 16.9496 2.75 17.9569 2.75 19.1996C2.75 20.4422 3.75736 21.4496 5 21.4496C6.24264 21.4496 7.25 20.4422 7.25 19.1996C7.25 17.9569 6.24264 16.9496 5 16.9496ZM21.25 5.19959C21.25 6.44223 20.2426 7.44959 19 7.44959C17.7574 7.44959 16.75 6.44223 16.75 5.19959C16.75 3.95694 17.7574 2.94959 19 2.94959C20.2426 2.94959 21.25 3.95694 21.25 5.19959ZM16.75 19.1996C16.75 17.9569 17.7574 16.9496 19 16.9496C20.2426 16.9496 21.25 17.9569 21.25 19.1996C21.25 20.4422 20.2426 21.4496 19 21.4496C17.7574 21.4496 16.75 20.4422 16.75 19.1996Z" fill="#17171C"/>
</svg>
