<svg width="24" height="24" viewBox="0 0 24 24" fill="none" xmlns="http://www.w3.org/2000/svg">
<path d="M17 14.1996C17.5523 14.1996 18 13.7519 18 13.1996C18 12.6473 17.5523 12.1996 17 12.1996C16.4477 12.1996 16 12.6473 16 13.1996C16 13.7519 16.4477 14.1996 17 14.1996Z" fill="#223671"/>
<path d="M17 18.1996C17.5523 18.1996 18 17.7519 18 17.1996C18 16.6473 17.5523 16.1996 17 16.1996C16.4477 16.1996 16 16.6473 16 17.1996C16 17.7519 16.4477 18.1996 17 18.1996Z" fill="#223671"/>
<path d="M13 13.1996C13 13.7519 12.5523 14.1996 12 14.1996C11.4477 14.1996 11 13.7519 11 13.1996C11 12.6473 11.4477 12.1996 12 12.1996C12.5523 12.1996 13 12.6473 13 13.1996Z" fill="#223671"/>
<path d="M13 17.1996C13 17.7519 12.5523 18.1996 12 18.1996C11.4477 18.1996 11 17.7519 11 17.1996C11 16.6473 11.4477 16.1996 12 16.1996C12.5523 16.1996 13 16.6473 13 17.1996Z" fill="#223671"/>
<path d="M7 14.1996C7.55229 14.1996 8 13.7519 8 13.1996C8 12.6473 7.55229 12.1996 7 12.1996C6.44772 12.1996 6 12.6473 6 13.1996C6 13.7519 6.44772 14.1996 7 14.1996Z" fill="#223671"/>
<path d="M7 18.1996C7.55229 18.1996 8 17.7519 8 17.1996C8 16.6473 7.55229 16.1996 7 16.1996C6.44772 16.1996 6 16.6473 6 17.1996C6 17.7519 6.44772 18.1996 7 18.1996Z" fill="#223671"/>
<path fill-rule="evenodd" clip-rule="evenodd" d="M7 1.94958C7.41421 1.94958 7.75 2.28537 7.75 2.69958V3.4623C8.412 3.44957 9.14133 3.44958 9.94346 3.44958H14.0564C14.8586 3.44958 15.588 3.44957 16.25 3.4623V2.69958C16.25 2.28537 16.5858 1.94958 17 1.94958C17.4142 1.94958 17.75 2.28537 17.75 2.69958V3.52667C18.0099 3.54649 18.2561 3.5714 18.489 3.60272C19.6614 3.76035 20.6104 4.09246 21.3588 4.84083C22.1071 5.58919 22.4392 6.53814 22.5969 7.71056C22.75 8.84977 22.75 10.3054 22.75 12.1431V14.256C22.75 16.0937 22.75 17.5494 22.5969 18.6886C22.4392 19.861 22.1071 20.81 21.3588 21.5583C20.6104 22.3067 19.6614 22.6388 18.489 22.7964C17.3498 22.9496 15.8942 22.9496 14.0565 22.9496H9.94359C8.10585 22.9496 6.65018 22.9496 5.51098 22.7964C4.33856 22.6388 3.38961 22.3067 2.64124 21.5583C1.89288 20.81 1.56076 19.861 1.40314 18.6886C1.24997 17.5494 1.24998 16.0938 1.25 14.256V12.1432C1.24998 10.3054 1.24997 8.84978 1.40314 7.71056C1.56076 6.53814 1.89288 5.58919 2.64124 4.84083C3.38961 4.09246 4.33856 3.76035 5.51098 3.60272C5.7439 3.5714 5.99006 3.54649 6.25 3.52667V2.69958C6.25 2.28537 6.58579 1.94958 7 1.94958ZM5.71085 5.08934C4.70476 5.22461 4.12511 5.47828 3.7019 5.90149C3.27869 6.3247 3.02502 6.90434 2.88976 7.91043C2.86685 8.08082 2.8477 8.26019 2.83168 8.44958H21.1683C21.1523 8.26019 21.1331 8.08082 21.1102 7.91043C20.975 6.90434 20.7213 6.3247 20.2981 5.90149C19.8749 5.47828 19.2952 5.22461 18.2892 5.08934C17.2615 4.95118 15.9068 4.94958 14 4.94958H10C8.09318 4.94958 6.73851 4.95118 5.71085 5.08934ZM2.75 12.1996C2.75 11.3456 2.75032 10.6023 2.76309 9.94958H21.2369C21.2497 10.6023 21.25 11.3456 21.25 12.1996V14.1996C21.25 16.1064 21.2484 17.4611 21.1102 18.4887C20.975 19.4948 20.7213 20.0745 20.2981 20.4977C19.8749 20.9209 19.2952 21.1746 18.2892 21.3098C17.2615 21.448 15.9068 21.4496 14 21.4496H10C8.09318 21.4496 6.73851 21.448 5.71085 21.3098C4.70476 21.1746 4.12511 20.9209 3.7019 20.4977C3.27869 20.0745 3.02502 19.4948 2.88976 18.4887C2.75159 17.4611 2.75 16.1064 2.75 14.1996V12.1996Z" fill="#223671"/>
</svg>
