<svg width="24" height="24" viewBox="0 0 24 24" fill="none" xmlns="http://www.w3.org/2000/svg">
<path fill-rule="evenodd" clip-rule="evenodd" d="M11.5 2.94958C6.66751 2.94958 2.75 6.86709 2.75 11.6996C2.75 16.5321 6.66751 20.4496 11.5 20.4496C16.3325 20.4496 20.25 16.5321 20.25 11.6996C20.25 6.86709 16.3325 2.94958 11.5 2.94958ZM1.25 11.6996C1.25 6.03867 5.83908 1.44958 11.5 1.44958C17.1609 1.44958 21.75 6.03867 21.75 11.6996C21.75 14.2601 20.8111 16.6013 19.2589 18.3978L22.5303 21.6693C22.8232 21.9621 22.8232 22.437 22.5303 22.7299C22.2374 23.0228 21.7626 23.0228 21.4697 22.7299L18.1982 19.4585C16.4017 21.0107 14.0605 21.9496 11.5 21.9496C5.83908 21.9496 1.25 17.3605 1.25 11.6996Z" fill="#17171C"/>
</svg>
