<svg width="22" height="22" viewBox="0 0 22 22" fill="none" xmlns="http://www.w3.org/2000/svg">
<path fill-rule="evenodd" clip-rule="evenodd" d="M10.5 1.94958C5.66751 1.94958 1.75 5.86709 1.75 10.6996C1.75 15.5321 5.66751 19.4496 10.5 19.4496C15.3325 19.4496 19.25 15.5321 19.25 10.6996C19.25 5.86709 15.3325 1.94958 10.5 1.94958ZM0.25 10.6996C0.25 5.03867 4.83908 0.449585 10.5 0.449585C16.1609 0.449585 20.75 5.03867 20.75 10.6996C20.75 13.2601 19.8111 15.6013 18.2589 17.3978L21.5303 20.6693C21.8232 20.9621 21.8232 21.437 21.5303 21.7299C21.2374 22.0228 20.7626 22.0228 20.4697 21.7299L17.1982 18.4585C15.4017 20.0107 13.0605 20.9496 10.5 20.9496C4.83908 20.9496 0.25 16.3605 0.25 10.6996Z" fill="#17171C"/>
</svg>
