<svg width="24" height="25" viewBox="0 0 24 25" fill="none" xmlns="http://www.w3.org/2000/svg">
<path fill-rule="evenodd" clip-rule="evenodd" d="M12 8.44959C9.92894 8.44959 8.25 10.1285 8.25 12.1996C8.25 14.2707 9.92894 15.9496 12 15.9496C14.0711 15.9496 15.75 14.2707 15.75 12.1996C15.75 10.1285 14.0711 8.44959 12 8.44959ZM9.75 12.1996C9.75 10.9569 10.7574 9.94958 12 9.94958C13.2426 9.94958 14.25 10.9569 14.25 12.1996C14.25 13.4422 13.2426 14.4496 12 14.4496C10.7574 14.4496 9.75 13.4422 9.75 12.1996Z" fill="#223671"/>
<path fill-rule="evenodd" clip-rule="evenodd" d="M11.9747 1.44959C11.5303 1.44958 11.1592 1.44957 10.8546 1.47036C10.5375 1.49199 10.238 1.53863 9.94761 1.65892C9.27379 1.93803 8.73843 2.47338 8.45932 3.14721C8.31402 3.498 8.27467 3.8677 8.25964 4.26955C8.24756 4.59258 8.08454 4.86209 7.84395 5.00099C7.60337 5.13989 7.28845 5.14632 7.00266 4.99527C6.64714 4.80735 6.30729 4.65658 5.93083 4.60702C5.20773 4.51182 4.47642 4.70777 3.89779 5.15177C3.64843 5.34311 3.45827 5.57919 3.28099 5.84299C3.11068 6.0964 2.92517 6.41773 2.70294 6.80265L2.67769 6.84639C2.45545 7.2313 2.26993 7.55262 2.13562 7.82682C1.99581 8.11225 1.88644 8.39497 1.84541 8.7066C1.75021 9.4297 1.94617 10.161 2.39016 10.7396C2.62128 11.0408 2.92173 11.2597 3.26217 11.4737C3.53595 11.6457 3.68788 11.9217 3.68786 12.1996C3.68785 12.4774 3.53592 12.7534 3.26217 12.9254C2.92169 13.1393 2.62121 13.3582 2.39007 13.6595C1.94607 14.2381 1.75012 14.9694 1.84531 15.6925C1.88634 16.0041 1.99571 16.2869 2.13552 16.5723C2.26983 16.8465 2.45535 17.1678 2.67758 17.5527L2.70284 17.5964C2.92507 17.9814 3.11058 18.3027 3.28089 18.5561C3.45817 18.8199 3.64833 19.056 3.89769 19.2473C4.47632 19.6913 5.20763 19.8873 5.93073 19.7921C6.30717 19.7425 6.647 19.5918 7.0025 19.4039C7.28833 19.2528 7.60329 19.2592 7.8439 19.3981C8.08452 19.5371 8.24756 19.8066 8.25964 20.1297C8.27467 20.5315 8.31403 20.9012 8.45932 21.252C8.73843 21.9258 9.27379 22.4611 9.94761 22.7403C10.238 22.8605 10.5375 22.9072 10.8546 22.9288C11.1592 22.9496 11.5303 22.9496 11.9747 22.9496H12.0252C12.4697 22.9496 12.8407 22.9496 13.1454 22.9288C13.4625 22.9072 13.762 22.8605 14.0524 22.7403C14.7262 22.4611 15.2616 21.9258 15.5407 21.252C15.686 20.9012 15.7253 20.5314 15.7403 20.1296C15.7524 19.8066 15.9154 19.537 16.156 19.3981C16.3966 19.2592 16.7116 19.2528 16.9974 19.4038C17.3529 19.5917 17.6927 19.7425 18.0692 19.792C18.7923 19.8872 19.5236 19.6913 20.1022 19.2473C20.3516 19.0559 20.5417 18.8198 20.719 18.556C20.8893 18.3026 21.0748 17.9813 21.297 17.5965L21.3223 17.5527C21.5445 17.1678 21.7301 16.8464 21.8644 16.5722C22.0042 16.2868 22.1135 16.0041 22.1546 15.6924C22.2498 14.9693 22.0538 14.238 21.6098 13.6594C21.3787 13.3582 21.0782 13.1393 20.7378 12.9253C20.464 12.7533 20.3121 12.4774 20.3121 12.1995C20.3121 11.9217 20.464 11.6458 20.7377 11.4738C21.0783 11.2599 21.3788 11.0409 21.6099 10.7397C22.0539 10.1611 22.2499 9.42977 22.1547 8.70667C22.1136 8.39504 22.0043 8.11232 21.8645 7.82689C21.7302 7.55271 21.5447 7.23141 21.3224 6.84654L21.2972 6.80276C21.0749 6.41784 20.8894 6.09647 20.7191 5.84306C20.5418 5.57926 20.3517 5.34318 20.1023 5.15184C19.5237 4.70784 18.7924 4.51189 18.0692 4.60709C17.6928 4.65665 17.353 4.8074 16.9975 4.9953C16.7117 5.14637 16.3967 5.13995 16.1561 5.00103C15.9155 4.86211 15.7524 4.59256 15.7403 4.26949C15.7253 3.86767 15.686 3.49799 15.5407 3.14721C15.2616 2.47338 14.7262 1.93802 14.0524 1.65892C13.762 1.53863 13.4625 1.49199 13.1454 1.47036C12.8407 1.44957 12.4697 1.44958 12.0252 1.44959H11.9747ZM10.5216 3.04474C10.5988 3.01278 10.716 2.9833 10.9567 2.96688C11.2042 2.94999 11.5238 2.94959 12 2.94959C12.4762 2.94959 12.7958 2.94999 13.0432 2.96688C13.284 2.9833 13.4012 3.01278 13.4783 3.04474C13.7846 3.1716 14.028 3.41495 14.1548 3.72123C14.1949 3.81784 14.228 3.96846 14.2414 4.32556C14.271 5.11793 14.68 5.88087 15.4061 6.30007C16.1321 6.71926 16.9974 6.69199 17.6984 6.32146C18.0143 6.15448 18.1614 6.1079 18.265 6.09425C18.5937 6.05098 18.9261 6.14005 19.1891 6.34187C19.2554 6.39271 19.3395 6.47948 19.4741 6.67974C19.6125 6.88561 19.7726 7.16218 20.0107 7.57459C20.2488 7.98699 20.4083 8.26397 20.5174 8.48672C20.6235 8.70341 20.6566 8.81966 20.6675 8.90245C20.7108 9.23114 20.6217 9.56355 20.4199 9.82656C20.3562 9.90954 20.2424 10.0136 19.9397 10.2037C19.2684 10.6255 18.8122 11.3611 18.8121 12.1995C18.8121 13.0379 19.2683 13.7736 19.9397 14.1954C20.2423 14.3855 20.3561 14.4896 20.4198 14.5725C20.6216 14.8356 20.7107 15.168 20.6674 15.4966C20.6565 15.5794 20.6234 15.6957 20.5173 15.9124C20.4082 16.1351 20.2487 16.4121 20.0106 16.8245C19.7725 17.2369 19.6124 17.5135 19.474 17.7194C19.3394 17.9196 19.2553 18.0064 19.189 18.0572C18.926 18.2591 18.5936 18.3481 18.2649 18.3048C18.1613 18.2912 18.0142 18.2446 17.6983 18.0777C16.9973 17.7071 16.132 17.6799 15.4059 18.0991C14.68 18.5183 14.271 19.2812 14.2414 20.0735C14.228 20.4307 14.1949 20.5813 14.1548 20.6779C14.028 20.9842 13.7846 21.2276 13.4783 21.3544C13.4012 21.3864 13.284 21.4159 13.0432 21.4323C12.7958 21.4492 12.4762 21.4496 12 21.4496C11.5238 21.4496 11.2042 21.4492 10.9567 21.4323C10.716 21.4159 10.5988 21.3864 10.5216 21.3544C10.2154 21.2276 9.97201 20.9842 9.84514 20.6779C9.80512 20.5813 9.77195 20.4307 9.75859 20.0736C9.72896 19.2812 9.31997 18.5183 8.5939 18.0991C7.86784 17.6799 7.00262 17.7072 6.30158 18.0777C5.98565 18.2447 5.83863 18.2913 5.73495 18.3049C5.40626 18.3482 5.07385 18.2591 4.81084 18.0573C4.74458 18.0065 4.66045 17.9197 4.52586 17.7194C4.38751 17.5136 4.22736 17.237 3.98926 16.8246C3.75115 16.4122 3.59171 16.1352 3.4826 15.9125C3.37646 15.6958 3.34338 15.5795 3.33248 15.4967C3.28921 15.168 3.37828 14.8356 3.5801 14.5726C3.64376 14.4896 3.75761 14.3856 4.0602 14.1955C4.73158 13.7736 5.18782 13.038 5.18786 12.1996C5.18791 11.3612 4.73165 10.6255 4.06021 10.2036C3.75769 10.0135 3.64385 9.90945 3.58019 9.82649C3.37838 9.56348 3.28931 9.23107 3.33258 8.90239C3.34348 8.81959 3.37656 8.70334 3.4827 8.48665C3.59181 8.2639 3.75125 7.98692 3.98935 7.57452C4.22746 7.16211 4.3876 6.88554 4.52596 6.67967C4.66055 6.47941 4.74468 6.39264 4.81093 6.3418C5.07395 6.13998 5.40636 6.05091 5.73504 6.09419C5.83873 6.10784 5.98576 6.15442 6.30173 6.32142C7.00273 6.69194 7.86791 6.71921 8.59394 6.30004C9.31998 5.88086 9.72896 5.11796 9.75859 4.3256C9.77195 3.96847 9.80512 3.81785 9.84514 3.72123C9.97201 3.41495 10.2154 3.1716 10.5216 3.04474Z" fill="#223671"/>
</svg>
